<?xml version="1.0" encoding="UTF-8"?>
<svg version="1.1" xmlns="http://www.w3.org/2000/svg" width="684" height="670">
<path d="M0 0 C225.72 0 451.44 0 684 0 C684 221.1 684 442.2 684 670 C458.28 670 232.56 670 0 670 C0 448.9 0 227.8 0 0 Z " fill="#FEFEFE" transform="translate(0,0)"/>
<path d="M0 0 C0.8907019 -0.00988449 1.78140381 -0.01976898 2.69909668 -0.029953 C37.43018456 -0.33564722 69.78516752 3.77638222 102.4453125 16.23828125 C103.10047852 16.47981934 103.75564453 16.72135742 104.43066406 16.97021484 C133.54208582 27.72459957 159.99736231 45.59309236 182.62109375 66.63671875 C184.95960371 68.79086485 187.33265092 70.87119562 189.7578125 72.92578125 C193.01983867 75.75824019 195.83594662 78.81100974 198.62109375 82.109375 C199.85451222 83.54880341 201.12444817 84.95760246 202.42578125 86.3359375 C212.54374866 97.08051856 220.85869544 109.37841921 228.5703125 121.92578125 C229.01938965 122.65539062 229.4684668 123.385 229.93115234 124.13671875 C232.48976329 128.38764703 234.53337799 132.64963844 236.4453125 137.23828125 C237.40582079 139.18375171 238.40240102 141.10809002 239.40112305 143.03417969 C242.39538181 148.81687255 245.0911173 154.34447563 246.6862793 160.68994141 C247.49573574 163.40756969 248.58561234 165.84421112 249.765625 168.421875 C252.8192227 175.66277448 254.49722886 183.0425943 256.13061523 190.70043945 C256.63045301 193.03973858 257.14874499 195.3743572 257.66992188 197.70898438 C261.38289076 214.54868288 262.79536089 230.62143158 262.76098633 247.85327148 C262.75782167 251.16618655 262.78138198 254.47820992 262.80664062 257.79101562 C262.83747918 268.49174444 262.49949967 278.62684822 260.15161133 289.08837891 C259.50630282 291.96628088 259.10093931 294.74327375 258.8203125 297.67578125 C258.4453125 301.23828125 258.4453125 301.23828125 257.4453125 302.23828125 C257.11437008 303.64629084 256.83187494 305.06574866 256.5703125 306.48828125 C254.69059446 316.12012116 252.73311155 325.15895507 248.74609375 334.16796875 C247.4031452 337.33781128 246.33140064 340.53070005 245.2578125 343.80078125 C241.96594489 353.11410855 237.27686098 361.64440664 232.4453125 370.23828125 C231.97673828 371.07230469 231.50816406 371.90632813 231.02539062 372.765625 C224.07171269 385.01240107 216.34418048 396.32716155 207.4453125 407.23828125 C206.95063477 407.84865234 206.45595703 408.45902344 205.94628906 409.08789062 C195.07639784 422.40477807 183.06534809 434.72525522 169.4453125 445.23828125 C168.45402344 446.03492188 167.46273438 446.8315625 166.44140625 447.65234375 C158.19611521 454.23065204 149.48732286 459.82469561 140.4453125 465.23828125 C139.66784668 465.70975586 138.89038086 466.18123047 138.08935547 466.66699219 C129.49305164 471.86797199 121.09857425 476.8148488 111.57421875 480.140625 C108.19219035 481.32707941 104.93212849 482.71390359 101.6328125 484.11328125 C86.3733982 490.34637091 70.19877801 494.36763838 54.05078125 497.51171875 C50.51018692 498.14855209 50.51018692 498.14855209 47.4453125 499.23828125 C37.09532686 500.50519241 26.60888193 500.51958146 16.1953125 500.55078125 C15.35258789 500.55339966 14.50986328 500.55601807 13.64160156 500.55871582 C1.48186775 500.56272025 -10.48488463 499.97439302 -22.5546875 498.48828125 C-24.49843262 498.25298706 -24.49843262 498.25298706 -26.48144531 498.01293945 C-35.42643482 496.80219529 -43.90104057 494.7516988 -52.5546875 492.23828125 C-53.36437988 492.00415527 -54.17407227 491.7700293 -55.00830078 491.52880859 C-96.72251345 479.15073388 -132.27207526 458.46016632 -163.5546875 428.23828125 C-164.07724121 427.7376416 -164.59979492 427.23700195 -165.13818359 426.72119141 C-171.82942619 420.29295212 -177.86730851 413.5653494 -183.5546875 406.23828125 C-184.00956543 405.65981445 -184.46444336 405.08134766 -184.93310547 404.48535156 C-195.93195959 390.45473845 -205.18300665 375.66686006 -212.8984375 359.59375 C-214.45147098 356.31871819 -214.45147098 356.31871819 -216.1328125 353.6640625 C-218.73670813 349.2217021 -220.14807497 344.2876569 -221.80273438 339.4296875 C-222.60575465 337.08945699 -223.43175147 334.75797144 -224.2578125 332.42578125 C-227.41048093 323.39980192 -230.18008091 314.37654662 -232.3046875 305.05078125 C-232.49095703 304.23416016 -232.67722656 303.41753906 -232.86914062 302.57617188 C-233.47199102 299.80392435 -234.01485112 297.02349547 -234.5546875 294.23828125 C-234.81652832 292.99989502 -235.07836914 291.76150879 -235.34814453 290.4855957 C-237.81392003 278.1033953 -238.0150415 265.87562529 -237.94580078 253.2800293 C-237.9297271 249.80933237 -237.94572975 246.33980233 -237.96484375 242.86914062 C-237.97844176 229.7080291 -237.22081062 217.13422363 -234.5546875 204.23828125 C-234.29413574 202.95896729 -234.03358398 201.67965332 -233.76513672 200.36157227 C-232.99777859 196.80535434 -232.17058487 193.27171713 -231.3046875 189.73828125 C-230.85125977 187.88082275 -230.85125977 187.88082275 -230.38867188 185.98583984 C-226.45744259 170.3362102 -220.79761056 155.63644064 -213.5546875 141.23828125 C-213.17940918 140.49046387 -212.80413086 139.74264648 -212.41748047 138.97216797 C-201.5567648 117.49169644 -188.59019774 98.13268124 -171.93017578 80.69921875 C-169.83180034 78.4704863 -167.82419169 76.16336835 -165.8046875 73.86328125 C-161.98221235 69.61077764 -157.9379164 65.89850332 -153.5546875 62.23828125 C-152.11996094 60.98917969 -152.11996094 60.98917969 -150.65625 59.71484375 C-133.16551471 44.5295704 -113.64383065 31.85300475 -92.5546875 22.23828125 C-91.78833984 21.88556152 -91.02199219 21.5328418 -90.23242188 21.16943359 C-68.53869457 11.34136009 -44.49459031 3.95829346 -20.74507141 1.47291565 C-19.3349754 1.32186586 -17.92596251 1.16012588 -16.51863098 0.98518372 C-11.00049594 0.31164892 -5.55634059 0.05078238 0 0 Z " fill="#FEFDFD" transform="translate(327.5546875,88.76171875)"/>
<path d="M0 0 C0.8907019 -0.00988449 1.78140381 -0.01976898 2.69909668 -0.029953 C37.43018456 -0.33564722 69.78516752 3.77638222 102.4453125 16.23828125 C103.10047852 16.47981934 103.75564453 16.72135742 104.43066406 16.97021484 C133.54208582 27.72459957 159.99736231 45.59309236 182.62109375 66.63671875 C184.95960371 68.79086485 187.33265092 70.87119562 189.7578125 72.92578125 C193.01983867 75.75824019 195.83594662 78.81100974 198.62109375 82.109375 C199.85451222 83.54880341 201.12444817 84.95760246 202.42578125 86.3359375 C212.54374866 97.08051856 220.85869544 109.37841921 228.5703125 121.92578125 C229.01938965 122.65539062 229.4684668 123.385 229.93115234 124.13671875 C232.48976329 128.38764703 234.53337799 132.64963844 236.4453125 137.23828125 C237.40582079 139.18375171 238.40240102 141.10809002 239.40112305 143.03417969 C242.39538181 148.81687255 245.0911173 154.34447563 246.6862793 160.68994141 C247.49573574 163.40756969 248.58561234 165.84421112 249.765625 168.421875 C252.8192227 175.66277448 254.49722886 183.0425943 256.13061523 190.70043945 C256.63045301 193.03973858 257.14874499 195.3743572 257.66992188 197.70898438 C261.38289076 214.54868288 262.79536089 230.62143158 262.76098633 247.85327148 C262.75782167 251.16618655 262.78138198 254.47820992 262.80664062 257.79101562 C262.83747918 268.49174444 262.49949967 278.62684822 260.15161133 289.08837891 C259.50630282 291.96628088 259.10093931 294.74327375 258.8203125 297.67578125 C258.4453125 301.23828125 258.4453125 301.23828125 257.4453125 302.23828125 C257.11437008 303.64629084 256.83187494 305.06574866 256.5703125 306.48828125 C254.69059446 316.12012116 252.73311155 325.15895507 248.74609375 334.16796875 C247.4031452 337.33781128 246.33140064 340.53070005 245.2578125 343.80078125 C241.96594489 353.11410855 237.27686098 361.64440664 232.4453125 370.23828125 C231.97673828 371.07230469 231.50816406 371.90632813 231.02539062 372.765625 C224.07171269 385.01240107 216.34418048 396.32716155 207.4453125 407.23828125 C206.95063477 407.84865234 206.45595703 408.45902344 205.94628906 409.08789062 C195.07639784 422.40477807 183.06534809 434.72525522 169.4453125 445.23828125 C168.45402344 446.03492188 167.46273438 446.8315625 166.44140625 447.65234375 C158.19611521 454.23065204 149.48732286 459.82469561 140.4453125 465.23828125 C139.66784668 465.70975586 138.89038086 466.18123047 138.08935547 466.66699219 C129.49305164 471.86797199 121.09857425 476.8148488 111.57421875 480.140625 C108.19219035 481.32707941 104.93212849 482.71390359 101.6328125 484.11328125 C86.3733982 490.34637091 70.19877801 494.36763838 54.05078125 497.51171875 C50.51018692 498.14855209 50.51018692 498.14855209 47.4453125 499.23828125 C37.09532686 500.50519241 26.60888193 500.51958146 16.1953125 500.55078125 C15.35258789 500.55339966 14.50986328 500.55601807 13.64160156 500.55871582 C1.48186775 500.56272025 -10.48488463 499.97439302 -22.5546875 498.48828125 C-24.49843262 498.25298706 -24.49843262 498.25298706 -26.48144531 498.01293945 C-35.42643482 496.80219529 -43.90104057 494.7516988 -52.5546875 492.23828125 C-53.36437988 492.00415527 -54.17407227 491.7700293 -55.00830078 491.52880859 C-96.72251345 479.15073388 -132.27207526 458.46016632 -163.5546875 428.23828125 C-164.07724121 427.7376416 -164.59979492 427.23700195 -165.13818359 426.72119141 C-171.82942619 420.29295212 -177.86730851 413.5653494 -183.5546875 406.23828125 C-184.00956543 405.65981445 -184.46444336 405.08134766 -184.93310547 404.48535156 C-195.93195959 390.45473845 -205.18300665 375.66686006 -212.8984375 359.59375 C-214.45147098 356.31871819 -214.45147098 356.31871819 -216.1328125 353.6640625 C-218.73670813 349.2217021 -220.14807497 344.2876569 -221.80273438 339.4296875 C-222.60575465 337.08945699 -223.43175147 334.75797144 -224.2578125 332.42578125 C-227.41048093 323.39980192 -230.18008091 314.37654662 -232.3046875 305.05078125 C-232.49095703 304.23416016 -232.67722656 303.41753906 -232.86914062 302.57617188 C-233.47199102 299.80392435 -234.01485112 297.02349547 -234.5546875 294.23828125 C-234.81652832 292.99989502 -235.07836914 291.76150879 -235.34814453 290.4855957 C-237.81392003 278.1033953 -238.0150415 265.87562529 -237.94580078 253.2800293 C-237.9297271 249.80933237 -237.94572975 246.33980233 -237.96484375 242.86914062 C-237.97844176 229.7080291 -237.22081062 217.13422363 -234.5546875 204.23828125 C-234.29413574 202.95896729 -234.03358398 201.67965332 -233.76513672 200.36157227 C-232.99777859 196.80535434 -232.17058487 193.27171713 -231.3046875 189.73828125 C-230.85125977 187.88082275 -230.85125977 187.88082275 -230.38867188 185.98583984 C-226.45744259 170.3362102 -220.79761056 155.63644064 -213.5546875 141.23828125 C-213.17940918 140.49046387 -212.80413086 139.74264648 -212.41748047 138.97216797 C-201.5567648 117.49169644 -188.59019774 98.13268124 -171.93017578 80.69921875 C-169.83180034 78.4704863 -167.82419169 76.16336835 -165.8046875 73.86328125 C-161.98221235 69.61077764 -157.9379164 65.89850332 -153.5546875 62.23828125 C-152.11996094 60.98917969 -152.11996094 60.98917969 -150.65625 59.71484375 C-133.16551471 44.5295704 -113.64383065 31.85300475 -92.5546875 22.23828125 C-91.78833984 21.88556152 -91.02199219 21.5328418 -90.23242188 21.16943359 C-68.53869457 11.34136009 -44.49459031 3.95829346 -20.74507141 1.47291565 C-19.3349754 1.32186586 -17.92596251 1.16012588 -16.51863098 0.98518372 C-11.00049594 0.31164892 -5.55634059 0.05078238 0 0 Z M-20.5546875 37.23828125 C-21.49183594 37.3995752 -22.42898438 37.56086914 -23.39453125 37.72705078 C-36.93776791 40.09204482 -49.80910369 43.07099178 -62.5546875 48.23828125 C-63.30911133 48.53605469 -64.06353516 48.83382812 -64.84082031 49.140625 C-82.72400625 56.22045713 -99.04760714 64.84097892 -114.5546875 76.23828125 C-115.14314453 76.66834473 -115.73160156 77.0984082 -116.33789062 77.54150391 C-130.61404236 88.07962155 -143.71964545 100.17439667 -154.5546875 114.23828125 C-155.24046875 115.02332031 -155.92625 115.80835938 -156.6328125 116.6171875 C-180.76951733 144.35703352 -195.63764969 181.06342182 -200.16137695 217.23486328 C-200.4369209 219.33898594 -200.74560376 221.43891068 -201.07885742 223.53466797 C-202.45832537 232.28753704 -202.99271376 240.88237285 -202.9921875 249.73828125 C-202.99391968 250.44194824 -202.99565186 251.14561523 -202.99743652 251.87060547 C-202.98093642 267.35291653 -200.69984754 282.07621397 -197.5546875 297.23828125 C-197.3788916 298.13015137 -197.2030957 299.02202148 -197.02197266 299.94091797 C-194.97967262 310.25234721 -191.66869469 319.6012194 -187.5546875 329.23828125 C-186.93922162 330.82127173 -186.32470866 332.4046329 -185.7109375 333.98828125 C-175.2984324 360.07624087 -158.6845588 381.96388774 -139.5546875 402.23828125 C-138.75289062 403.09421875 -137.95109375 403.95015625 -137.125 404.83203125 C-121.63094173 420.88489162 -102.38826965 433.24857259 -82.5546875 443.23828125 C-81.8121875 443.63402344 -81.0696875 444.02976562 -80.3046875 444.4375 C-65.15289878 452.42375531 -48.17831524 457.23872342 -31.44604492 460.55126953 C-29.22401211 460.99188532 -27.0055654 461.44799797 -24.78710938 461.90625 C13.52839534 469.72622551 51.97587265 464.54147906 88.4453125 451.23828125 C90.19908203 450.61179687 90.19908203 450.61179687 91.98828125 449.97265625 C94.4798032 449.07583466 96.96549193 448.16684842 99.4453125 447.23828125 C99.4453125 446.57828125 99.4453125 445.91828125 99.4453125 445.23828125 C100.14011719 445.13386719 100.83492188 445.02945312 101.55078125 444.921875 C131.92313912 437.74891599 162.96472784 407.14624951 181.4453125 383.23828125 C182.15945313 382.34109375 182.87359375 381.44390625 183.609375 380.51953125 C196.85709448 363.48006167 206.80593899 344.38172366 214.4453125 324.23828125 C215.13216339 322.57134697 215.81968169 320.90468757 216.5078125 319.23828125 C220.9383283 308.13592989 223.35884289 296.73030975 225.0078125 284.92578125 C225.19633789 283.63510742 225.19633789 283.63510742 225.38867188 282.31835938 C233.21029211 227.1575088 221.46448873 173.04298111 189.4453125 127.23828125 C188.69636719 126.16320312 187.94742187 125.088125 187.17578125 123.98046875 C182.29547103 117.24476131 176.85907755 111.17138789 171.14453125 105.1484375 C168.4453125 102.23828125 168.4453125 102.23828125 166.3046875 99.5546875 C164.64192951 97.48322639 163.02362329 95.82829177 161.0078125 94.11328125 C160.30785156 93.51773438 159.60789062 92.9221875 158.88671875 92.30859375 C158.08105469 91.62539062 157.27539062 90.9421875 156.4453125 90.23828125 C155.50558594 89.41070312 154.56585938 88.583125 153.59765625 87.73046875 C142.12411947 77.68907944 129.76430186 69.4205205 116.5703125 61.80078125 C115.71501953 61.30457275 114.85972656 60.80836426 113.97851562 60.29711914 C109.06269846 57.51367549 104.14475275 55.20227249 98.87011719 53.18334961 C96.53412223 52.27289487 94.26087702 51.27921639 91.98046875 50.23828125 C82.12273399 45.80001115 72.6746525 42.8423952 62.03125 40.9296875 C58.4453125 40.23828125 58.4453125 40.23828125 57.4453125 39.23828125 C32.60262152 33.70988404 4.51535726 32.69842315 -20.5546875 37.23828125 Z " fill="#CE3C7C" transform="translate(327.5546875,88.76171875)"/>
<path d="M0 0 C0 0.66 0 1.32 0 2 C1.12535156 2.06960937 2.25070312 2.13921875 3.41015625 2.2109375 C8.67843583 2.87628238 12.82904106 5.09436739 17.4375 7.625 C18.27716309 8.07721924 19.11682617 8.52943848 19.98193359 8.99536133 C25.78936026 12.18305364 30.97956462 15.67168226 36 20 C37.49682056 21.12922682 38.99692765 22.25410816 40.5 23.375 C60.47564274 39.10711241 76.38838544 64.7587268 80.3125 90.0625 C82.45879631 108.98392246 82.46149356 128.66787085 77 147 C76.63777344 148.23363281 76.27554688 149.46726562 75.90234375 150.73828125 C72.06164814 162.44263837 66.5293908 173.94171418 58.15234375 183.0703125 C56.81744195 184.93437938 56.81744195 184.93437938 56.98876953 187.15917969 C58.55576673 191.56129931 61.70967364 194.17973724 65.02734375 197.3828125 C65.73145889 198.07889618 66.43557404 198.77497986 67.161026 199.49215698 C69.41059579 201.71274578 71.67336884 203.91926857 73.9375 206.125 C76.19542085 208.34040015 78.45051098 210.5586101 80.70326233 212.77926636 C82.10531363 214.1596395 83.51083721 215.53649651 84.92015076 216.90945435 C85.55743607 217.53375336 86.19472137 218.15805237 86.85131836 218.80126953 C87.41233749 219.34800323 87.97335663 219.89473694 88.55137634 220.45803833 C90.915719 222.97472079 91.95991946 224.77287694 92.5625 228.1875 C91.74156321 233.75162714 88.86997194 236.10990689 85 240 C84.14277344 240.97453125 83.28554688 241.9490625 82.40234375 242.953125 C81.47791459 243.96998083 80.55213708 244.98561255 79.625 246 C78.77164063 246.94875 77.91828125 247.8975 77.0390625 248.875 C73.49415068 251.35370441 71.6705032 251.69107068 67.44458008 251.57376099 C62.49181094 250.41130952 59.51072365 246.49067113 56.16796875 242.87109375 C55.36893631 242.04746841 54.56990387 241.22384308 53.74665833 240.3752594 C51.20452493 237.74984619 48.6944827 235.09646477 46.1875 232.4375 C43.65927858 229.7787278 41.12481559 227.12689472 38.57478333 224.48902893 C36.99078345 222.8483504 35.41991187 221.19487773 33.86357117 219.52793884 C33.15215469 218.78709549 32.44073822 218.04625214 31.70776367 217.28295898 C31.08649094 216.62343735 30.4652182 215.96391571 29.82511902 215.28440857 C28.08119384 213.7550258 28.08119384 213.7550258 25.89772034 214.23905945 C23.80153038 215.07958158 21.7653018 215.97168544 19.734375 216.9609375 C18.92613281 217.35023438 18.11789062 217.73953125 17.28515625 218.140625 C16.03025391 218.75164062 16.03025391 218.75164062 14.75 219.375 C6.35439406 223.46077369 -1.85852738 226.96359133 -11 229 C-11.69601318 229.16951172 -12.39202637 229.33902344 -13.10913086 229.51367188 C-36.19430563 234.72399557 -63.84154809 231.78493313 -85 221 C-85.57621094 220.71785645 -86.15242188 220.43571289 -86.74609375 220.14501953 C-95.89891592 215.65185917 -104.08618441 210.48306927 -112 204 C-112.85078125 203.31421875 -113.7015625 202.6284375 -114.578125 201.921875 C-125.01777649 193.05801996 -133.06550986 181.7339337 -140 170 C-140.65871094 168.91460937 -141.31742188 167.82921875 -141.99609375 166.7109375 C-144.20551515 162.82220844 -145.68768009 158.78700377 -147.125 154.5625 C-147.37636719 153.85029297 -147.62773437 153.13808594 -147.88671875 152.40429688 C-152.57098398 138.90331253 -154.39411816 125.5864807 -154.375 111.3125 C-154.37478851 110.65524933 -154.37457703 109.99799866 -154.37435913 109.3208313 C-154.34017197 98.64908999 -153.41472277 89.09957092 -150 79 C-149.42185547 77.27523437 -149.42185547 77.27523437 -148.83203125 75.515625 C-142.44195821 57.89639449 -132.92763753 43.39266046 -120 30 C-119.25878906 29.195625 -118.51757812 28.39125 -117.75390625 27.5625 C-88.97298125 -2.85550514 -39.32566354 -13.10855451 0 0 Z " fill="#CE3C7C" transform="translate(378,223)"/>
<path d="M0 0 C0.90105469 0.27714844 1.80210937 0.55429687 2.73046875 0.83984375 C21.03656646 7.32014261 34.99624782 21.16974169 44 38 C44.62841797 39.15242188 44.62841797 39.15242188 45.26953125 40.328125 C53.17579332 56.31831795 53.45306285 78.09821135 48.0703125 94.90234375 C40.20463749 115.5429599 25.62453042 130.58677397 6.14453125 140.59765625 C1.54541812 142.64868931 -3.06956891 144.01239439 -8 145 C-8.85980469 145.18046875 -9.71960938 145.3609375 -10.60546875 145.546875 C-31.51033751 148.33739833 -50.70305843 145.40456778 -68 133 C-80.23166048 123.47047364 -88.44310882 111.91249714 -95 98 C-95.46019531 97.02933594 -95.92039062 96.05867188 -96.39453125 95.05859375 C-102.47217084 79.27391142 -100.96275041 57.41498351 -94.3359375 42.0625 C-90.36860456 33.3653162 -85.49211557 26.06389823 -79 19 C-78.47277344 18.36964844 -77.94554687 17.73929687 -77.40234375 17.08984375 C-69.81185151 8.56752638 -56.47829959 1.25841876 -45.5625 -1.625 C-44.67691406 -1.86476563 -43.79132813 -2.10453125 -42.87890625 -2.3515625 C-28.12060583 -5.67568444 -14.27379512 -4.47713574 0 0 Z " fill="#FEFCFC" transform="translate(366,265)"/>
<path d="M0 0 C2 1 2 1 2.640625 2.8359375 C2.94226563 4.09277344 2.94226563 4.09277344 3.25 5.375 C4.70005421 11.04749186 6.41073527 16.61095246 8.1875 22.1875 C8.46174805 23.04972168 8.73599609 23.91194336 9.01855469 24.80029297 C9.67727847 26.86742301 10.33838563 28.93379331 11 31 C13.45940302 29.62688417 15.91775329 28.25196683 18.375 26.875 C19.10219238 26.46773682 19.82938477 26.06047363 20.57861328 25.64086914 C25.51406781 22.86570168 30.37838418 19.99894278 35.1796875 16.99609375 C37 16 37 16 39 16 C37.31238147 20.80686852 34.74354595 24.97243186 32.125 29.3125 C28.83426946 34.77589387 25.78822923 40.26143519 23 46 C23.5993335 46.03810791 24.19866699 46.07621582 24.81616211 46.11547852 C31.36160586 46.63660652 37.30306427 47.9939522 43.5625 49.9375 C44.46291016 50.20240234 45.36332031 50.46730469 46.29101562 50.74023438 C51.19337561 52.23129179 51.19337561 52.23129179 53 53 C53.33 53.66 53.66 54.32 54 55 C49.75015833 56.14642114 45.50009957 57.2920354 41.25 58.4375 C40.0434375 58.76298828 38.836875 59.08847656 37.59375 59.42382812 C35.85351562 59.89272461 35.85351562 59.89272461 34.078125 60.37109375 C32.47565918 60.8031311 32.47565918 60.8031311 30.84082031 61.24389648 C28.56484082 61.8496638 26.28705896 62.4378853 24 63 C25.42114154 66.82122393 27.19189532 70.22622205 29.2578125 73.73828125 C30.19560547 75.33833008 30.19560547 75.33833008 31.15234375 76.97070312 C31.80332031 78.07349609 32.45429688 79.17628906 33.125 80.3125 C33.78371094 81.43462891 34.44242187 82.55675781 35.12109375 83.71289062 C36.7443237 86.47708656 38.37072154 89.23936632 40 92 C36.78013581 92 35.81026576 91.53670771 33.0859375 89.98828125 C32.32410156 89.55966797 31.56226563 89.13105469 30.77734375 88.68945312 C29.58818359 88.00786133 29.58818359 88.00786133 28.375 87.3125 C27.60542969 86.87744141 26.83585937 86.44238281 26.04296875 85.99414062 C24.48797372 85.11506052 22.93425999 84.23371009 21.38183594 83.35009766 C17.60218749 81.207677 13.8014511 79.10342431 10 77 C9.74605469 78.05058594 9.49210937 79.10117187 9.23046875 80.18359375 C7.4276915 87.56530703 5.56886104 94.84062989 3 102 C2.608125 103.175625 2.21625 104.35125 1.8125 105.5625 C1.544375 106.366875 1.27625 107.17125 1 108 C-0.95955563 104.50079352 -1.93345362 100.83600878 -3 97 C-3.42923973 95.49466392 -3.85894695 93.98946107 -4.2890625 92.484375 C-4.73468751 90.90633822 -5.17999596 89.32821201 -5.625 87.75 C-5.85445313 86.94820313 -6.08390625 86.14640625 -6.3203125 85.3203125 C-6.536875 84.54945313 -6.7534375 83.77859375 -6.9765625 82.984375 C-7.17330566 82.29053711 -7.37004883 81.59669922 -7.57275391 80.88183594 C-8 79 -8 79 -8 76 C-8.589021 76.33733154 -9.17804199 76.67466309 -9.78491211 77.0222168 C-12.50210388 78.57790157 -15.21979889 80.1327052 -17.9375 81.6875 C-18.86369141 82.21794922 -19.78988281 82.74839844 -20.74414062 83.29492188 C-26.47341873 86.57166689 -32.22136231 89.81107786 -38 93 C-36.47201607 88.8313464 -34.42059798 85.07131065 -32.1875 81.25 C-31.47237441 80.01057924 -30.75753085 78.77099571 -30.04296875 77.53125 C-29.69540527 76.93054688 -29.3478418 76.32984375 -28.98974609 75.7109375 C-27.65049223 73.39581883 -26.31841415 71.07705764 -25 68.75 C-24.608125 68.06421875 -24.21625 67.3784375 -23.8125 66.671875 C-22.85430058 65.0100037 -22.85430058 65.0100037 -23 63 C-33.28504277 60.07955576 -43.54872393 57.2712137 -54 55 C-54 54.34 -54 53.68 -54 53 C-52.40285156 52.65388672 -52.40285156 52.65388672 -50.7734375 52.30078125 C-41.2142329 50.17233435 -32.13863886 47.53380013 -23 44 C-25.7192421 37.13228957 -29.43574938 30.99250607 -33.23632812 24.67578125 C-33.71908203 23.85980469 -34.20183594 23.04382813 -34.69921875 22.203125 C-35.14096436 21.46739258 -35.58270996 20.73166016 -36.0378418 19.97363281 C-37 18 -37 18 -37 15 C-36.44127197 15.33733154 -35.88254395 15.67466309 -35.30688477 16.0222168 C-32.72639419 17.57892723 -30.14445733 19.13322364 -27.5625 20.6875 C-26.68400391 21.21794922 -25.80550781 21.74839844 -24.90039062 22.29492188 C-19.3280286 25.64656398 -13.70795784 28.88474439 -8 32 C-7.9175 31.113125 -7.835 30.22625 -7.75 29.3125 C-7.07483912 24.52850289 -5.5144007 20.03754891 -4.0546875 15.4453125 C-2.49414217 10.34753107 -1.23323356 5.18518658 0 0 Z " fill="#DD8936" transform="translate(341,282)"/>
<path d="M0 0 C1.66745373 0.32937358 3.3339654 0.66352176 5 1 C5.76441406 1.144375 6.52882812 1.28875 7.31640625 1.4375 C13.35102863 2.94877934 13.35102863 2.94877934 15.15014648 5.86303711 C15.42930908 6.5978833 15.70847168 7.33272949 15.99609375 8.08984375 C24.52063605 29.1001235 38.69897728 48.4128632 56 63 C57.29191842 64.16638788 58.58358302 65.33305695 59.875 66.5 C71.96333296 77.01872383 86.31253352 84.75867475 101 91 C102.19882812 91.515625 103.39765625 92.03125 104.6328125 92.5625 C129.92972109 102.97963557 161.28758818 105.45269644 188 100 C189.6886519 99.71265765 191.37746947 99.42628811 193.06640625 99.140625 C208.9879669 96.25180998 225.42215433 91.05189711 239 82 C241.67373203 82.20526683 242.75897904 82.76948225 244.703125 84.62890625 C245.21359375 85.26699219 245.7240625 85.90507812 246.25 86.5625 C246.77078125 87.20316406 247.2915625 87.84382813 247.828125 88.50390625 C248.21484375 88.99761719 248.6015625 89.49132812 249 90 C240.3071545 95.05487051 231.26676915 99.15308236 222.03393555 103.11132812 C220.2756574 103.87955912 218.54307854 104.70611531 216.81640625 105.54296875 C211.21844838 107.93120615 205.1177741 108.88991413 199.1875 110.125 C197.96740234 110.38925781 196.74730469 110.65351563 195.49023438 110.92578125 C170.50130402 116.21629095 144.93999705 115.09531753 120 110 C118.94087402 109.7836792 118.94087402 109.7836792 117.86035156 109.56298828 C91.98786006 103.93705115 67.24730437 89.09899072 47.76171875 71.57421875 C46.0234829 70.02098361 44.236852 68.54408564 42.4375 67.0625 C38.53853706 63.7192716 35.27345923 59.94657314 32 56 C31.38382813 55.27167969 30.76765625 54.54335938 30.1328125 53.79296875 C16.94823279 37.82850778 5.71206599 19.97787904 0 0 Z " fill="#CF417F" transform="translate(179,395)"/>
<path d="M0 0 C2.45769764 -0.0043304 4.91492016 -0.00131399 7.37255859 0.01416016 C6.22913338 2.32787959 5.08294795 4.64015693 3.93505859 6.95166016 C3.44682617 7.94069336 3.44682617 7.94069336 2.94873047 8.94970703 C0.48583984 13.90087891 0.48583984 13.90087891 -0.62744141 15.01416016 C-2.44888672 14.99095703 -2.44888672 14.99095703 -4.30712891 14.96728516 C-7.24243489 15.3055205 -8.32407652 15.68374911 -10.34716797 17.88720703 C-11.97461989 20.4518646 -13.38204444 23.05365124 -14.75244141 25.76416016 C-15.25775391 26.67166016 -15.76306641 27.57916016 -16.28369141 28.51416016 C-18.24533327 32.1481818 -18.24533327 32.1481818 -19.62744141 36.01416016 C-18.78833195 38.60906552 -18.78833195 38.60906552 -17.62744141 41.01416016 C-17.78015612 45.13745751 -18.31488451 47.52942875 -20.56201172 51.0144043 C-23.42525514 55.89832966 -23.85548222 61.09615838 -24.54931641 66.63525391 C-24.69902893 67.73515152 -24.84874146 68.83504913 -25.00299072 69.96827698 C-25.47515259 73.4610303 -25.92657226 76.95610104 -26.37744141 80.45166016 C-26.69508368 82.8287965 -27.01407954 85.20575239 -27.33447266 87.58251953 C-28.11447968 93.39106871 -28.87750277 99.2016566 -29.62744141 105.01416016 C-34.65920908 105.08799513 -39.40077637 104.90220714 -44.39306641 104.17431641 C-45.61251953 103.99835938 -46.83197266 103.82240234 -48.08837891 103.64111328 C-49.33876953 103.45484375 -50.58916016 103.26857422 -51.87744141 103.07666016 C-53.14330078 102.89425781 -54.40916016 102.71185547 -55.71337891 102.52392578 C-65.85078932 101.04420823 -65.85078932 101.04420823 -69.62744141 100.01416016 C-69.73336682 94.44389076 -69.38691339 89.18725336 -68.56884766 83.68212891 C-68.46023911 82.92370193 -68.35163055 82.16527496 -68.23973083 81.38386536 C-68.01119883 79.79613322 -67.7799713 78.2087869 -67.54614258 76.62182617 C-67.1884685 74.19165266 -66.83991932 71.76029692 -66.49267578 69.32861328 C-66.26859707 67.77970829 -66.04400595 66.23087733 -65.81884766 64.68212891 C-65.71464005 63.95712692 -65.61043243 63.23212494 -65.50306702 62.4851532 C-65.06698135 59.54380862 -64.57015639 56.8423051 -63.62744141 54.01416016 C-60.32744141 54.34416016 -57.02744141 54.67416016 -53.62744141 55.01416016 C-54.10455477 58.88941584 -54.58449651 62.76431622 -55.06494141 66.63916016 C-55.19964844 67.73357422 -55.33435547 68.82798828 -55.47314453 69.95556641 C-55.60527344 71.01904297 -55.73740234 72.08251953 -55.87353516 73.17822266 C-55.99398193 74.15227051 -56.11442871 75.12631836 -56.23852539 76.12988281 C-56.63950133 79.10359891 -57.11924713 82.05704481 -57.62744141 85.01416016 C-54.65744141 84.51916016 -54.65744141 84.51916016 -51.62744141 84.01416016 C-50.63744141 76.42416016 -49.64744141 68.83416016 -48.62744141 61.01416016 C-42.62744141 61.01416016 -42.62744141 61.01416016 -40.62744141 62.01416016 C-41.09736434 70.48513944 -41.88104024 78.70603811 -43.62744141 87.01416016 C-41.64744141 87.01416016 -39.66744141 87.01416016 -37.62744141 87.01416016 C-37.50626953 85.86560547 -37.38509766 84.71705078 -37.26025391 83.53369141 C-36.27146767 74.31629371 -35.14662496 65.16158456 -33.62744141 56.01416016 C-31.31744141 56.34416016 -29.00744141 56.67416016 -26.62744141 57.01416016 C-28.43527902 53.51173372 -30.24923374 50.01251266 -32.06494141 46.51416016 C-32.60465576 45.47146973 -33.14437012 44.4287793 -33.70043945 43.35449219 C-36.20197544 38.54938615 -38.7243198 33.77468033 -41.46337891 29.10009766 C-41.88433838 28.38015625 -42.30529785 27.66021484 -42.73901367 26.91845703 C-43.52102804 25.59702921 -44.3152472 24.28272423 -45.12329102 22.97705078 C-47.70198805 18.61815165 -47.70198805 18.61815165 -47.33837891 15.67211914 C-45.90784183 10.32381657 -44.68003296 5.98223807 -40.62744141 2.01416016 C-34.59534489 0.29882407 -28.67526979 0.33447913 -22.43994141 0.32666016 C-20.77770301 0.28533513 -19.11557789 0.23915332 -17.45361328 0.18798828 C-11.63552375 0.02757459 -5.81983306 0.02271842 0 0 Z " fill="#DC8834" transform="translate(214.62744140625,243.98583984375)"/>
<path d="M0 0 C6.13902549 4.26737138 9.79870435 11.54863563 11.65625 18.625 C13.05264601 27.37574835 13.87557284 38.71736386 9.125 46.5625 C4.87395951 51.51131229 0.30950973 54.04737486 -6.19140625 54.84765625 C-12.7103888 55.23580941 -16.95808632 53.87577472 -21.875 49.5625 C-26.92000368 44.50435829 -28.38558918 38.38462646 -29.875 31.5625 C-30.2153125 30.0775 -30.2153125 30.0775 -30.5625 28.5625 C-31.44565013 20.08425877 -31.90841071 11.90468704 -26.55078125 4.80859375 C-20.13749807 -2.17700341 -8.68266815 -4.23497623 0 0 Z " fill="#CF3E7C" transform="translate(521.875,294.4375)"/>
<path d="M0 0 C3.32287462 3.03253965 5.39661861 6.1209194 7.56640625 10.05078125 C7.88657211 10.62781296 8.20673798 11.20484467 8.53660583 11.79936218 C9.20952018 13.01541915 9.87915129 14.23329814 10.5456543 15.45288086 C11.55590705 17.30044274 12.57681218 19.14178059 13.59960938 20.98242188 C23.43424046 38.80270794 23.43424046 38.80270794 22 49 C19.88869719 52.69477992 17.87416193 54.39398378 14 56 C11.7109375 56.23046875 11.7109375 56.23046875 9.375 56.1875 C8.59898437 56.18105469 7.82296875 56.17460937 7.0234375 56.16796875 C5 56 5 56 3 55 C2.608125 56.051875 2.21625 57.10375 1.8125 58.1875 C0.23597443 61.91658932 -1.96895425 64.29663487 -5 67 C-8.72787356 65.75737548 -9.23912389 64.54939866 -11.25 61.25 C-11.79140625 60.38890625 -12.3328125 59.5278125 -12.890625 58.640625 C-14.18893609 55.55027888 -14.0708893 54.13656409 -13 51 C-12.484375 50.566875 -11.96875 50.13375 -11.4375 49.6875 C-9.4578762 47.3635938 -9.47430174 45.24231615 -9.5625 42.265625 C-10.24950878 38.70790097 -11.99765295 35.92596447 -13.90625 32.8828125 C-15 31 -15 31 -15 29 C-15.60328125 29.38414062 -16.2065625 29.76828125 -16.828125 30.1640625 C-17.62734375 30.64617187 -18.4265625 31.12828125 -19.25 31.625 C-20.43335938 32.35589844 -20.43335938 32.35589844 -21.640625 33.1015625 C-24 34 -24 34 -26.09375 33.53125 C-28.7775267 31.37542937 -29.79789652 28.97722106 -31.25 25.875 C-31.77078125 24.77929688 -32.2915625 23.68359375 -32.828125 22.5546875 C-33.21484375 21.71164063 -33.6015625 20.86859375 -34 20 C-26.90866939 15.05223997 -19.50043282 10.80577879 -11.9375 6.625 C-10.78572266 5.98433594 -9.63394531 5.34367188 -8.44726562 4.68359375 C-5.63336316 3.11901727 -2.81759747 1.55790926 0 0 Z " fill="#CE3D7C" transform="translate(495,228)"/>
<path d="M0 0 C4.55818739 2.60949485 8.221963 5.05196225 11.078125 9.57421875 C11.490625 10.21359375 11.903125 10.85296875 12.328125 11.51171875 C13.32526135 14.2538437 13.20956645 16.68250682 13.078125 19.57421875 C8.49028886 19.01104126 4.94794812 17.77983294 0.828125 15.69921875 C-0.72648437 14.92964844 -0.72648437 14.92964844 -2.3125 14.14453125 C-4.921875 12.57421875 -4.921875 12.57421875 -6.921875 9.57421875 C-8.88549364 8.99673072 -8.88549364 8.99673072 -11.046875 8.88671875 C-12.325625 8.78359375 -13.604375 8.68046875 -14.921875 8.57421875 C-11.52769006 12.5461373 -6.73279787 14.35216792 -2.1484375 16.66015625 C2.2895875 19.29288295 5.22770532 22.29858923 8.078125 26.57421875 C8.56100323 30.27628519 8.39961416 32.04252514 6.453125 35.26171875 C2.51154746 39.09957057 -1.01366456 40.74615346 -6.484375 41.07421875 C-16.36729595 40.74677257 -26.42687437 35.89004902 -33.921875 29.57421875 C-37.02896539 26.0882149 -38.13156234 23.77873725 -38.171875 19.19921875 C-38.089375 18.00296875 -38.006875 16.80671875 -37.921875 15.57421875 C-23.31883812 20.0362578 -23.31883812 20.0362578 -18.796875 24.82421875 C-16.95092205 26.91211464 -16.95092205 26.91211464 -13.671875 26.82421875 C-12.764375 26.74171875 -11.856875 26.65921875 -10.921875 26.57421875 C-10.591875 25.91421875 -10.261875 25.25421875 -9.921875 24.57421875 C-10.788125 24.30996094 -11.654375 24.04570312 -12.546875 23.7734375 C-20.36083929 20.99694787 -30.04180021 16.35169009 -33.921875 8.57421875 C-34.234375 5.01171875 -34.234375 5.01171875 -32.921875 1.57421875 C-23.45605959 -9.08980114 -11.6285591 -5.67436373 0 0 Z " fill="#CF3E7D" transform="translate(419.921875,169.42578125)"/>
<path d="M0 0 C-1.64386631 1.69523713 -3.30618349 3.35527962 -5 5 C-5.61617187 5.60070312 -6.23234375 6.20140625 -6.8671875 6.8203125 C-11.17699578 10.8282665 -14.27136849 12.73970107 -20 14 C-20.66 14.66 -21.32 15.32 -22 16 C-22 17.32 -22 18.64 -22 20 C-21.49549316 19.67201416 -20.99098633 19.34402832 -20.47119141 19.00610352 C-18.18982774 17.5238215 -15.90742798 16.04314259 -13.625 14.5625 C-12.8309375 14.04623047 -12.036875 13.52996094 -11.21875 12.99804688 C-10.45820313 12.50498047 -9.69765625 12.01191406 -8.9140625 11.50390625 C-8.2123291 11.04830322 -7.5105957 10.5927002 -6.78759766 10.12329102 C-2.62944586 7.51039066 1.16370337 7.35458675 6 8 C8.50160818 9.87620613 9.61945652 11.23891303 11 14 C11.81157928 20.23756646 11.31133503 24.9112055 7.609375 30.05859375 C1.52488673 37.39837693 -4.83663879 42.94554626 -14 46 C-18.95337583 46.23967948 -22.48141403 46.25929298 -27 44 C-25.49644388 40.27452207 -23.36686952 38.35905056 -20.25 35.875 C-19.40953125 35.19179687 -18.5690625 34.50859375 -17.703125 33.8046875 C-14.85809299 31.90525862 -12.24863351 31.01378993 -9 30 C-6.2267814 27.67649253 -5.15196598 26.45589795 -4 23 C-9.68925983 25.63391659 -14.63761884 28.71979208 -19.703125 32.4140625 C-24.2609948 35.56116308 -27.34651126 36.69428809 -33 36 C-36.08089108 33.45491606 -38.61895845 31.23801621 -39.30859375 27.1875 C-39.72433078 20.13256852 -37.43851388 15.41261521 -33 10 C-23.45186208 0.96835492 -13.02147831 -7.62232876 0 0 Z " fill="#DC8834" transform="translate(242,193)"/>
<path d="M0 0 C2.91195456 0.17787071 4.6457039 0.64451103 7.21362305 2.06591797 C13.75415353 9.48004472 18.00912346 18.73905431 22.39868164 27.52978516 C24.46604324 31.55771969 26.75566243 35.39124041 29.17578125 39.21484375 C30.21362305 41.06591797 30.21362305 41.06591797 30.21362305 43.06591797 C27.627771 43.22828542 25.05210351 43.34687283 22.46362305 43.44091797 C21.73401367 43.49119141 21.0044043 43.54146484 20.25268555 43.59326172 C18.10424805 43.65185547 18.10424805 43.65185547 14.21362305 43.06591797 C13.65674805 42.09654297 13.09987305 41.12716797 12.52612305 40.12841797 C10.55114508 36.84553574 10.55114508 36.84553574 7.47827148 36.38476562 C3.96889038 36.02542058 0.48884893 35.82273731 -3.03637695 35.69091797 C-4.2584082 35.62259766 -5.48043945 35.55427734 -6.73950195 35.48388672 C-9.7547603 35.31898978 -12.76886348 35.18070778 -15.78637695 35.06591797 C-16.09575195 35.87029297 -16.40512695 36.67466797 -16.72387695 37.50341797 C-17.78637695 40.06591797 -17.78637695 40.06591797 -18.78637695 41.06591797 C-21.64905262 41.13916965 -24.48709595 41.15830002 -27.34887695 41.12841797 C-28.15518555 41.12390625 -28.96149414 41.11939453 -29.79223633 41.11474609 C-31.79031452 41.10292315 -33.78835478 41.08498711 -35.78637695 41.06591797 C-34.47528511 38.3372765 -33.03525628 35.81581653 -31.3527832 33.30029297 C-30.87365479 32.58220459 -30.39452637 31.86411621 -29.90087891 31.12426758 C-29.38871826 30.36251221 -28.87655762 29.60075684 -28.34887695 28.81591797 C-27.82189209 28.02902588 -27.29490723 27.24213379 -26.75195312 26.43139648 C-23.06330964 20.93555418 -19.34348905 15.46126355 -15.59887695 10.00341797 C-15.12973877 9.31924805 -14.66060059 8.63507813 -14.17724609 7.93017578 C-10.07010598 1.96980457 -7.19509739 0.60080792 0 0 Z " fill="#CE3E7C" transform="translate(347.786376953125,151.93408203125)"/>
<path d="M0 0 C0.495 0.99 0.495 0.99 1 2 C-0.03564453 4.36328125 -0.03564453 4.36328125 -1.6328125 7.3125 C-2.19097656 8.38886719 -2.74914062 9.46523437 -3.32421875 10.57421875 C-4.51360238 12.83688566 -5.72166643 15.08984253 -6.94921875 17.33203125 C-10.74402548 24.6724742 -10.74402548 24.6724742 -9.94140625 32.6328125 C-9.33882945 34.10754395 -8.6971079 35.56752933 -8 37 C-6.5086392 40.61066299 -6 41.96746898 -6 46 C-8.10171867 46.8394882 -10.20646625 47.67139656 -12.3125 48.5 C-13.48425781 48.9640625 -14.65601563 49.428125 -15.86328125 49.90625 C-19 51 -19 51 -22 51 C-22.13148438 49.90042969 -22.26296875 48.80085938 -22.3984375 47.66796875 C-23.38687198 42.53821448 -24.60999156 38.07746723 -28 34 C-35.84029983 28.78933242 -45.09393961 25.87601418 -54 23 C-54 22.01 -54 21.02 -54 20 C-51.77585391 19.13020539 -49.54727408 18.27916816 -47.3125 17.4375 C-46.68666016 17.19064453 -46.06082031 16.94378906 -45.41601562 16.68945312 C-39.87836007 14.63095289 -37.15297055 15.0248151 -31.88671875 17.41015625 C-30.83097656 17.95542969 -29.77523438 18.50070313 -28.6875 19.0625 C-27.61886719 19.61035156 -26.55023438 20.15820312 -25.44921875 20.72265625 C-24.64097656 21.14417969 -23.83273437 21.56570312 -23 22 C-21.57037066 17.73946556 -21.57037066 17.73946556 -20.2734375 13.4375 C-18.93194063 9.79796068 -17.6801611 6.96804286 -14.20166016 4.96386719 C-9.60281253 2.89293417 -4.83929689 1.39890368 0 0 Z " fill="#DC8834" transform="translate(300,155)"/>
<path d="M0 0 C3.44779086 1.50006391 5.82360533 3.50409262 8.5625 6.0625 C12.9562097 10.08953115 17.47441931 13.89854625 22.10546875 17.6484375 C25.3212062 20.26095295 28.50728591 22.90696929 31.6875 25.5625 C32.21714355 26.00456787 32.74678711 26.44663574 33.29248047 26.90209961 C34.52867134 27.93431282 35.76439054 28.96709087 37 30 C35.58208437 32.93446886 34.01667393 35.43332409 32 38 C27.01987239 36.49087042 23.75740058 33.44338151 20 30 C15.7235496 31.56970885 13.34690115 34.82599088 10.5625 38.25 C10.09779297 38.81074219 9.63308594 39.37148437 9.15429688 39.94921875 C8.22644702 41.06988538 7.30143746 42.19291017 6.37939453 43.31835938 C4.26842731 45.89187127 2.13315196 48.44486336 0 51 C-3.52238047 49.43632643 -6.27123994 47.30504111 -9.25 44.875 C-10.14203125 44.15054688 -11.0340625 43.42609375 -11.953125 42.6796875 C-12.62859375 42.12539062 -13.3040625 41.57109375 -14 41 C-10.70586806 36.37529711 -7.21333455 32.06227405 -3.375 27.875 C-0.19840378 24.40377849 2.56585795 21.021626 5 17 C1.37 14.03 -2.26 11.06 -6 8 C-4.21844267 4.43688534 -2.83236991 2.64354525 0 0 Z " fill="#CE3E7C" transform="translate(448,185)"/>
<path d="M0 0 C2.75569447 2.18159145 4.43588747 3.87177494 6 7 C6.34708476 12.29304255 6.51351894 15.73358414 3 20 C-0.42094119 22.56570589 -3.84773484 22.43708054 -8 22 C-10.75329021 20.20437595 -12.52627461 18.94745078 -14 16 C-14.59534067 10.71847776 -14.8693614 6.43023973 -12.0625 1.8125 C-7.95804844 -0.61666521 -4.65822862 -1.08016895 0 0 Z " fill="#FDFAFC" transform="translate(517,310)"/>
<path d="M0 0 C1.82421875 2.765625 1.82421875 2.765625 3.6875 6.25 C4.31011719 7.38953125 4.93273437 8.5290625 5.57421875 9.703125 C6.93431851 12.84812281 7.42309687 14.63975242 7 18 C6 19 6 19 3.6640625 19.35546875 C1 19 1 19 -0.9140625 16.98828125 C-1.76097656 15.66376953 -1.76097656 15.66376953 -2.625 14.3125 C-3.19476563 13.44238281 -3.76453125 12.57226562 -4.3515625 11.67578125 C-4.89554687 10.79277344 -5.43953125 9.90976562 -6 9 C-6.56460937 8.10667969 -7.12921875 7.21335937 -7.7109375 6.29296875 C-9 4 -9 4 -9 2 C-3.375 -1.125 -3.375 -1.125 0 0 Z " fill="#FDF7F9" transform="translate(497,249)"/>
<path d="M0 0 C4.29 0 8.58 0 13 0 C11.53867783 4.38396651 10.416361 7.26562391 8 11 C5 10 5 10 3.61328125 7.71484375 C2.40885417 5.14322917 1.20442708 2.57161458 0 0 Z " fill="#FEFBF9" transform="translate(181,259)"/>
<path d="M0 0 C0.66 0 1.32 0 2 0 C2.83848804 1.45537568 3.67063934 2.91440373 4.5 4.375 C4.9640625 5.18710938 5.428125 5.99921875 5.90625 6.8359375 C7 9 7 9 7 11 C2.71 11 -1.58 11 -6 11 C-4.02 7.37 -2.04 3.74 0 0 Z " fill="#FDF8FA" transform="translate(345,166)"/>
<path d="M0 0 C0.66 0.33 1.32 0.66 2 1 C0.49423836 5.07547461 -1.92441868 6.53015377 -5.5625 8.75 C-7.04943359 9.67039063 -7.04943359 9.67039063 -8.56640625 10.609375 C-11 12 -11 12 -12 12 C-12.3125 9.75 -12.3125 9.75 -12 7 C-8.71874198 3.62223439 -5.45913299 2.31747111 -1 1 C-0.67 0.67 -0.34 0.34 0 0 Z " fill="#FCF6F0" transform="translate(231,202)"/>
<path d="M0 0 C7.10993658 0.2410148 7.10993658 0.2410148 9.64453125 2.40234375 C11 4.0625 11 4.0625 13 7 C12.34 7.66 11.68 8.32 11 9 C7.37 7.02 3.74 5.04 0 3 C0 2.01 0 1.02 0 0 Z " fill="#FBF2F6" transform="translate(405,177)"/>
<path d="M0 0 C-0.28819649 3.45835793 -0.78965038 4.78380733 -3.25 7.3125 C-6.2009146 9.12328851 -7.61510691 9.38684492 -11 9 C-9.99056513 5.36603447 -9.08394242 4.06608233 -6.0625 1.6875 C-3 0 -3 0 0 0 Z " fill="#FBF2EA" transform="translate(238,216)"/>
</svg>
